<?xml version="1.0" standalone="no"?><!DOCTYPE svg PUBLIC "-//W3C//DTD SVG 1.1//EN" "http://www.w3.org/Graphics/SVG/1.1/DTD/svg11.dtd"><svg t="1712801469699" class="icon" viewBox="0 0 1024 1024" version="1.1" xmlns="http://www.w3.org/2000/svg" p-id="17914" xmlns:xlink="http://www.w3.org/1999/xlink" width="48" height="48"><path d="M796.450133 85.333333C891.255467 85.333333 938.666667 132.744533 938.666667 227.549867v568.900266C938.666667 891.255467 891.255467 938.666667 796.450133 938.666667H227.549867C132.744533 938.666667 85.333333 891.255467 85.333333 796.450133V227.549867C85.333333 132.744533 132.744533 85.333333 227.549867 85.333333h568.900266z m-148.804266 440.4224c-14.967467 0-27.050667 12.117333-27.050667 27.101867v67.7376h-67.754667a27.101867 27.101867 0 1 0 0 54.135467h67.754667v67.754666a27.0848 27.0848 0 1 0 54.152533 0v-67.754666h67.720534a27.0848 27.0848 0 1 0 0-54.135467h-67.720534v-67.754667c0-14.9504-12.117333-27.0848-27.101866-27.0848z m-230.229334 0h-67.754666a121.924267 121.924267 0 0 0 0 243.8144l3.566933-0.034133a121.924267 121.924267 0 0 0 118.340267-121.873067v-67.720533a54.186667 54.186667 0 0 0-54.152534-54.186667z m-0.068266 54.186667v67.703467l-0.068267 2.952533a67.7376 67.7376 0 1 1-67.618133-70.656h67.6864z m-67.6864-352.170667v0.034134l-3.566934 0.034133a121.924267 121.924267 0 0 0 3.584 243.7632h67.669334l2.7136-0.068267a54.1696 54.1696 0 0 0 51.473066-54.101333v-67.771733l-0.034133-3.566934a121.924267 121.924267 0 0 0-121.856-118.3232z m311.483733-0.017066l-3.566933 0.0512a121.924267 121.924267 0 0 0-118.306134 121.856v67.720533l0.068267 2.7136a54.186667 54.186667 0 0 0 54.1184 51.473067h67.7376l3.549867-0.034134a121.924267 121.924267 0 0 0-3.584-243.7632l-0.017067-0.017066z m-311.466667 54.203733l3.413334 0.085333a67.7376 67.7376 0 0 1 64.290133 65.5872v69.751467H349.696l-2.952533-0.068267a67.7376 67.7376 0 0 1 2.952533-135.355733z m311.517867-0.034133a67.754667 67.754667 0 0 1 2.048 135.458133h-69.751467V349.696l0.068267-2.952533a67.669333 67.669333 0 0 1 67.6352-64.785067z" fill="white" p-id="17915"></path></svg>