<?xml version="1.0" standalone="no"?><!DOCTYPE svg PUBLIC "-//W3C//DTD SVG 1.1//EN" "http://www.w3.org/Graphics/SVG/1.1/DTD/svg11.dtd"><svg t="1712634582117" class="icon" viewBox="0 0 1024 1024" version="1.1" xmlns="http://www.w3.org/2000/svg" p-id="3362" xmlns:xlink="http://www.w3.org/1999/xlink" width="48" height="48"><path d="M86.454857 54.784h228.315429c57.636571 0 86.454857 28.818286 86.454857 86.454857v228.315429c0 57.636571-28.818286 86.454857-86.454857 86.454857H86.454857C28.818286 451.584 0 422.729143 0 367.323429V139.008c0-57.636571 28.818286-84.224 86.454857-84.224z m0 567.478857h228.315429c57.636571 0 86.454857 28.818286 86.454857 86.454857v228.315429c0 57.636571-28.818286 86.454857-86.454857 86.454857H86.454857C28.818286 1021.293714 0 992.438857 0 934.765714V708.754286c0-57.636571 28.818286-86.454857 86.454857-86.454857z m567.478857 0h228.315429c57.636571 0 86.454857 28.818286 86.454857 86.454857v228.315429c0 57.636571-28.818286 86.454857-86.454857 86.454857H653.897143c-57.636571 0-86.454857-28.818286-86.454857-86.454857v-228.315429c2.194286-57.636571 31.012571-86.454857 86.454857-86.454857z" fill="#D5E4FA" p-id="3363"></path><path d="M709.302857 30.427429l-161.792 161.828571c-39.899429 39.862857-39.899429 81.993143 0 119.698286l161.792 161.792c39.899429 39.899429 79.798857 39.899429 119.698286 0l161.828571-161.792c39.899429-39.899429 39.899429-79.798857 0-119.698286L829.001143 30.427429c-39.862857-39.899429-79.798857-39.899429-119.698286 0z" fill="#2D77E5" p-id="3364"></path></svg>