<?xml version="1.0" standalone="no"?><!DOCTYPE svg PUBLIC "-//W3C//DTD SVG 1.1//EN" "http://www.w3.org/Graphics/SVG/1.1/DTD/svg11.dtd"><svg t="1713768370028" class="icon" viewBox="0 0 1024 1024" version="1.1" xmlns="http://www.w3.org/2000/svg" p-id="7796" xmlns:xlink="http://www.w3.org/1999/xlink" width="48" height="48"><path d="M537.6 563.2H665.6a25.6 25.6 0 1 1 0 51.2h-153.6a25.4976 25.4976 0 0 1-25.6-25.6v-204.8a25.6 25.6 0 1 1 51.2 0V563.2z m-282.9824 284.9792a25.6 25.6 0 0 1 34.304-37.9904 332.8 332.8 0 1 0-66.4576-82.7392 25.6 25.6 0 1 1-44.4928 25.2928 384 384 0 1 1 76.6464 95.4368z m639.232-586.24a25.6 25.6 0 0 1-40.1408 31.744 437.1968 437.1968 0 0 0-142.0288-117.248 25.6 25.6 0 0 1 23.552-45.5168 488.3968 488.3968 0 0 1 158.6176 130.9696zM297.5744 126.464a25.6 25.6 0 0 1 22.5792 45.9264 437.0432 437.0432 0 0 0-147.968 118.8864 25.6 25.6 0 1 1-39.9872-32 488.2432 488.2432 0 0 1 165.376-132.8128z" fill="#eeeeee" p-id="7797"></path></svg>